<svg width="16" height="16" viewBox="0 0 16 16" fill="none" xmlns="http://www.w3.org/2000/svg">
<g clip-path="url(#clip0_102_13)">
<path d="M9 7.77209C9.5 7.27209 11.5 6.77209 11.5 8.77209C11.5 10.9388 11.9 14.9721 13.5 13.7721C14.3 12.9721 14.8333 12.4388 15 12.2721M15 7.77209C15.1667 6.93875 14.9 6.07209 12.5 9.27209C9.5 13.2721 9 15.7721 8 13.2721" stroke="white" stroke-linecap="round"/>
<path d="M1.5 10.5H2.5L4.5 15L7.5 4.5H16" stroke="white" stroke-linecap="round"/>
<path d="M1 3.31912C1.5 1.31913 4.5 1.81914 4.5 3.31912C4.5 5.31912 1 7.31914 1 8.31914C1.4 8.31914 3.5 8.31914 4.5 8.31914" stroke="white" stroke-linecap="round"/>
</g>
<defs>
<clipPath id="clip0_102_13">
<rect width="16" height="16" fill="white"/>
</clipPath>
</defs>
</svg>
