<svg width="32" height="32" viewBox="0 0 32 32" fill="none" xmlns="http://www.w3.org/2000/svg">
<path fill-rule="evenodd" clip-rule="evenodd" d="M16.6599 3C17.0595 3 17.4425 3.15941 17.7241 3.44288L22.884 8.63734C23.4679 9.22507 23.4647 10.1748 22.877 10.7586C22.2892 11.3425 21.3395 11.3393 20.7556 10.7516L18.1628 8.14142V15.6818C18.1628 16.5102 17.4913 17.1818 16.6628 17.1818C15.8344 17.1818 15.1628 16.5102 15.1628 15.6818V8.13552L12.5642 10.7516C11.9804 11.3393 11.0306 11.3425 10.4429 10.7586C9.85515 10.1748 9.85198 9.22507 10.4358 8.63734L15.5957 3.44288C15.8773 3.15941 16.2604 3 16.6599 3Z" fill="white"/>
<path fill-rule="evenodd" clip-rule="evenodd" d="M6.725 14.1396C7.67769 14.1396 8.45 14.8629 8.45 15.755V21.1396C8.45 23.2213 10.2521 24.9089 12.475 24.9089H20.525C22.7479 24.9089 24.55 23.2213 24.55 21.1396V15.755C24.55 14.8629 25.3223 14.1396 26.275 14.1396C27.2277 14.1396 28 14.8629 28 15.755V21.1396C28 25.0056 24.6533 28.1396 20.525 28.1396H12.475C8.34667 28.1396 5 25.0056 5 21.1396V15.755C5 14.8629 5.77231 14.1396 6.725 14.1396Z" fill="white"/>
</svg>
