<svg width="32" height="32" viewBox="0 0 32 32" fill="none" xmlns="http://www.w3.org/2000/svg">
<path fill-rule="evenodd" clip-rule="evenodd" d="M2.75 8C2.75 7.30964 3.30964 6.75 4 6.75H4.01333C4.70369 6.75 5.26333 7.30964 5.26333 8C5.26333 8.69036 4.70369 9.25 4.01333 9.25H4C3.30964 9.25 2.75 8.69036 2.75 8ZM9.41667 8C9.41667 7.30964 9.97631 6.75 10.6667 6.75H28C28.6904 6.75 29.25 7.30964 29.25 8C29.25 8.69036 28.6904 9.25 28 9.25H10.6667C9.97631 9.25 9.41667 8.69036 9.41667 8ZM2.75 16C2.75 15.3096 3.30964 14.75 4 14.75H4.01333C4.70369 14.75 5.26333 15.3096 5.26333 16C5.26333 16.6904 4.70369 17.25 4.01333 17.25H4C3.30964 17.25 2.75 16.6904 2.75 16ZM9.41667 16C9.41667 15.3096 9.97631 14.75 10.6667 14.75H28C28.6904 14.75 29.25 15.3096 29.25 16C29.25 16.6904 28.6904 17.25 28 17.25H10.6667C9.97631 17.25 9.41667 16.6904 9.41667 16ZM2.75 24C2.75 23.3096 3.30964 22.75 4 22.75H4.01333C4.70369 22.75 5.26333 23.3096 5.26333 24C5.26333 24.6904 4.70369 25.25 4.01333 25.25H4C3.30964 25.25 2.75 24.6904 2.75 24ZM9.41667 24C9.41667 23.3096 9.97631 22.75 10.6667 22.75H28C28.6904 22.75 29.25 23.3096 29.25 24C29.25 24.6904 28.6904 25.25 28 25.25H10.6667C9.97631 25.25 9.41667 24.6904 9.41667 24Z" fill="white"/>
</svg>
