<svg width="32" height="32" viewBox="0 0 32 32" fill="none" xmlns="http://www.w3.org/2000/svg">
<path fill-rule="evenodd" clip-rule="evenodd" d="M18.1889 14.0061L7.63944 7.27029C6.49114 6.53754 5 7.38079 5 8.76468V22.2346C5 23.6185 6.49114 24.4634 7.63944 23.729L18.1872 16.9932C19.2706 16.3046 19.2706 14.6963 18.1889 14.0061Z" fill="white"/>
<path fill-rule="evenodd" clip-rule="evenodd" d="M4.25 8.76468C4.25 6.81692 6.37159 5.57158 8.04289 6.63804L18.5923 13.3738C18.5924 13.3739 18.5923 13.3738 18.5923 13.3738C20.1353 14.3586 20.1368 16.6418 18.5905 17.6256C18.5902 17.6258 18.5898 17.626 18.5895 17.6262L8.04355 24.3608C6.37083 25.4307 4.25 24.1809 4.25 22.2346V8.76468ZM17.7853 14.6382L7.236 7.90253C7.23594 7.9025 7.23606 7.90257 7.236 7.90253C6.61069 7.5037 5.75 7.94474 5.75 8.76468V22.2346C5.75 23.056 6.61144 23.4962 7.23534 23.0972L17.785 16.3602C18.4044 15.9665 18.4053 15.0338 17.7853 14.6382Z" fill="white"/>
<path d="M20 9.5C20 7.567 21.567 6 23.5 6C25.433 6 27 7.567 27 9.5V21.5C27 23.433 25.433 25 23.5 25C21.567 25 20 23.433 20 21.5V9.5Z" fill="white"/>
</svg>
