<svg width="32" height="32" viewBox="0 0 32 32" fill="none" xmlns="http://www.w3.org/2000/svg">
<path d="M19.2002 4.70001C19.2002 3.87159 19.8718 3.20001 20.7002 3.20001H26.5002C27.3286 3.20001 28.0002 3.87159 28.0002 4.70001V27.3C28.0002 28.1284 27.3286 28.8 26.5002 28.8H20.7002C19.8718 28.8 19.2002 28.1284 19.2002 27.3V4.70001Z" fill="white"/>
<path fill-rule="evenodd" clip-rule="evenodd" d="M18.2002 4.70001C18.2002 3.3193 19.3195 2.20001 20.7002 2.20001H26.5002C27.8809 2.20001 29.0002 3.3193 29.0002 4.70001V27.3C29.0002 28.6807 27.8809 29.8 26.5002 29.8H20.7002C19.3195 29.8 18.2002 28.6807 18.2002 27.3V4.70001ZM20.7002 4.20001C20.4241 4.20001 20.2002 4.42387 20.2002 4.70001V27.3C20.2002 27.5762 20.4241 27.8 20.7002 27.8H26.5002C26.7763 27.8 27.0002 27.5762 27.0002 27.3V4.70001C27.0002 4.42387 26.7763 4.20001 26.5002 4.20001H20.7002Z" fill="white"/>
<path d="M4 4.70001C4 3.87159 4.67157 3.20001 5.5 3.20001H11.3C12.1284 3.20001 12.8 3.87159 12.8 4.70001V27.3C12.8 28.1284 12.1284 28.8 11.3 28.8H5.5C4.67157 28.8 4 28.1284 4 27.3V4.70001Z" fill="white"/>
<path fill-rule="evenodd" clip-rule="evenodd" d="M3 4.70001C3 3.3193 4.11929 2.20001 5.5 2.20001H11.3C12.6807 2.20001 13.8 3.3193 13.8 4.70001V27.3C13.8 28.6807 12.6807 29.8 11.3 29.8H5.5C4.11929 29.8 3 28.6807 3 27.3V4.70001ZM5.5 4.20001C5.22386 4.20001 5 4.42387 5 4.70001V27.3C5 27.5762 5.22386 27.8 5.5 27.8H11.3C11.5761 27.8 11.8 27.5762 11.8 27.3V4.70001C11.8 4.42387 11.5761 4.20001 11.3 4.20001H5.5Z" fill="white"/>
</svg>
