<svg width="32" height="32" viewBox="0 0 32 32" fill="none" xmlns="http://www.w3.org/2000/svg">
<path fill-rule="evenodd" clip-rule="evenodd" d="M16 5.62921C10.2724 5.62921 5.62921 10.2724 5.62921 16C5.62921 21.7276 10.2724 26.3708 16 26.3708C21.7276 26.3708 26.3708 21.7276 26.3708 16C26.3708 10.2724 21.7276 5.62921 16 5.62921ZM3 16C3 8.8203 8.8203 3 16 3C23.1797 3 29 8.8203 29 16C29 23.1797 23.1797 29 16 29C8.8203 29 3 23.1797 3 16ZM16 10.0112C16.726 10.0112 17.3146 10.5998 17.3146 11.3258V14.6854H20.6742C21.4002 14.6854 21.9888 15.274 21.9888 16C21.9888 16.726 21.4002 17.3146 20.6742 17.3146H17.3146V20.6742C17.3146 21.4002 16.726 21.9888 16 21.9888C15.274 21.9888 14.6854 21.4002 14.6854 20.6742V17.3146H11.3258C10.5998 17.3146 10.0112 16.726 10.0112 16C10.0112 15.274 10.5998 14.6854 11.3258 14.6854H14.6854V11.3258C14.6854 10.5998 15.274 10.0112 16 10.0112Z" fill="white"/>
</svg>
