<svg width="32" height="32" viewBox="0 0 32 32" fill="none" xmlns="http://www.w3.org/2000/svg">
<path fill-rule="evenodd" clip-rule="evenodd" d="M13.0611 14.0061L23.6106 7.27029C24.7589 6.53754 26.25 7.38079 26.25 8.76468V22.2346C26.25 23.6185 24.7589 24.4634 23.6106 23.729L13.0628 16.9932C11.9794 16.3046 11.9794 14.6963 13.0611 14.0061Z" fill="white"/>
<path fill-rule="evenodd" clip-rule="evenodd" d="M27 8.76468C27 6.81692 24.8784 5.57158 23.2071 6.63804L12.6577 13.3738C12.6576 13.3739 12.6577 13.3738 12.6577 13.3738C11.1147 14.3586 11.1132 16.6418 12.6595 17.6256C12.6598 17.6258 12.6602 17.626 12.6605 17.6262L23.2064 24.3608C24.8792 25.4307 27 24.1809 27 22.2346V8.76468ZM13.4647 14.6382L24.014 7.90253C24.0141 7.9025 24.0139 7.90257 24.014 7.90253C24.6393 7.5037 25.5 7.94474 25.5 8.76468V22.2346C25.5 23.056 24.6386 23.4962 24.0147 23.0972L13.465 16.3602C12.8456 15.9665 12.8447 15.0338 13.4647 14.6382Z" fill="white"/>
<path d="M11.25 9.5C11.25 7.567 9.683 6 7.75 6C5.817 6 4.25 7.567 4.25 9.5V21.5C4.25 23.433 5.817 25 7.75 25C9.683 25 11.25 23.433 11.25 21.5V9.5Z" fill="white"/>
</svg>
