<svg width="32" height="32" viewBox="0 0 32 32" fill="none" xmlns="http://www.w3.org/2000/svg">
<path fill-rule="evenodd" clip-rule="evenodd" d="M11.7966 9.5C8.33662 9.50115 5.5 12.3385 5.5 15.7987C5.5 17.5254 6.20525 19.0986 7.35133 20.2447C7.93711 20.8305 7.93711 21.7802 7.35133 22.366C6.76554 22.9518 5.81579 22.9518 5.23001 22.366C3.54942 20.6854 2.5 18.3599 2.5 15.7987C2.5 10.6809 6.68091 6.5 11.7987 6.5H11.8031V6.50001L21.3377 6.52801C22.1662 6.53044 22.8358 7.20398 22.8333 8.0324C22.8309 8.86083 22.1574 9.53043 21.3289 9.52799L11.7987 9.5C11.798 9.5 11.7973 9.5 11.7966 9.5Z" fill="white"/>
<path fill-rule="evenodd" clip-rule="evenodd" d="M18.1362 4.831C18.4291 4.5381 18.9039 4.5381 19.1968 4.831L21.8635 7.49766C22.1564 7.79056 22.1564 8.26543 21.8635 8.55833L19.1968 11.225C18.9039 11.5179 18.4291 11.5179 18.1362 11.225C17.8433 10.9321 17.8433 10.4572 18.1362 10.1643L20.2725 8.02799L18.1362 5.89166C17.8433 5.59877 17.8433 5.12389 18.1362 4.831Z" fill="white"/>
<path fill-rule="evenodd" clip-rule="evenodd" d="M24.6485 9.63398C25.2343 9.04819 26.184 9.04819 26.7698 9.63398C28.4504 11.3146 29.4998 13.64 29.4998 16.2013C29.4998 21.3191 25.3189 25.5 20.2012 25.5L20.1968 25.5L10.6621 25.472C9.83368 25.4695 9.16408 24.796 9.16651 23.9676C9.16894 23.1391 9.84249 22.4695 10.6709 22.472L20.2012 22.5C20.2019 22.5 20.2027 22.5 20.2035 22.5C23.6633 22.4987 26.4998 19.6614 26.4998 16.2013C26.4998 14.4746 25.7946 12.9014 24.6485 11.7553C24.0627 11.1695 24.0627 10.2198 24.6485 9.63398Z" fill="white"/>
<path fill-rule="evenodd" clip-rule="evenodd" d="M13.8635 20.775C14.1564 21.0679 14.1564 21.5427 13.8635 21.8356L11.7272 23.972L13.8635 26.1083C14.1564 26.4012 14.1564 26.8761 13.8635 27.169C13.5706 27.4619 13.0957 27.4619 12.8028 27.169L10.1362 24.5023C9.84328 24.2094 9.84328 23.7345 10.1362 23.4416L12.8028 20.775C13.0957 20.4821 13.5706 20.4821 13.8635 20.775Z" fill="white"/>
</svg>
