<svg width="24" height="24" viewBox="0 0 24 24" fill="none" xmlns="http://www.w3.org/2000/svg">
<path fill-rule="evenodd" clip-rule="evenodd" d="M13.7157 1.86291C12.9391 0.56694 11.0612 0.566938 10.2846 1.8629L9.57884 3.04067C9.12594 3.79647 8.23178 4.16684 7.37711 3.95266L6.04526 3.6189C4.57974 3.25164 3.25182 4.57955 3.61908 6.04507L3.95284 7.37693C4.16702 8.2316 3.79665 9.12576 3.04086 9.57865L1.86309 10.2844C0.567123 11.061 0.567121 12.939 1.86309 13.7155L3.04085 14.4213C3.79665 14.8742 4.16702 15.7684 3.95284 16.623L3.61908 17.9549C3.25182 19.4204 4.57974 20.7483 6.04525 20.3811L7.37711 20.0473C8.23178 19.8331 9.12594 20.2035 9.57884 20.9593L10.2846 22.137C11.0612 23.433 12.9391 23.433 13.7157 22.1371L14.4215 20.9593C14.8744 20.2035 15.7685 19.8331 16.6232 20.0473L17.9551 20.3811C19.4206 20.7483 20.7485 19.4204 20.3812 17.9549L20.0475 16.623C19.8333 15.7684 20.2037 14.8742 20.9595 14.4213L22.1372 13.7155C23.4332 12.939 23.4332 11.061 22.1372 10.2844L20.9595 9.57865C20.2037 9.12576 19.8333 8.2316 20.0475 7.37693L20.3812 6.04507C20.7485 4.57956 19.4206 3.25164 17.9551 3.6189L16.6232 3.95266C15.7685 4.16684 14.8744 3.79647 14.4215 3.04067L13.7157 1.86291ZM12.0002 16C14.2093 16 16.0002 14.2091 16.0002 12C16.0002 9.79084 14.2093 7.99998 12.0002 7.99998C9.79102 7.99998 8.00016 9.79084 8.00016 12C8.00016 14.2091 9.79102 16 12.0002 16Z" fill="white"/>
</svg>
