<svg width="32" height="32" viewBox="0 0 32 32" fill="none" xmlns="http://www.w3.org/2000/svg">
<path fill-rule="evenodd" clip-rule="evenodd" d="M22.1445 9.50666C21.3036 9.50429 20.5191 9.92264 20.0552 10.6194L11.7761 23.0387C10.75 24.576 9.02103 25.4972 7.17123 25.488L3.99245 25.472C3.16403 25.4678 2.49585 24.7929 2.50002 23.9645C2.50419 23.136 3.17913 22.4679 4.00755 22.472L7.1861 22.488C7.18614 22.488 7.18606 22.488 7.1861 22.488C8.02668 22.4921 8.81266 22.0742 9.27996 21.3746C9.2801 21.3744 9.27982 21.3748 9.27996 21.3746L17.5581 8.95664C18.5822 7.41921 20.3098 6.50118 22.1538 6.50668L28.0055 6.52801C28.8339 6.53103 29.503 7.20505 29.5 8.03347C29.497 8.8619 28.823 9.53101 27.9945 9.52799L22.1445 9.50666C22.1443 9.50666 22.1446 9.50666 22.1445 9.50666Z" fill="white"/>
<path fill-rule="evenodd" clip-rule="evenodd" d="M24.2728 20.2447C24.8586 19.6589 25.8084 19.6589 26.3942 20.2447L29.0608 22.9114C29.6466 23.4972 29.6466 24.4469 29.0608 25.0327L26.3942 27.6994C25.8084 28.2851 24.8586 28.2851 24.2728 27.6994C23.687 27.1136 23.687 26.1638 24.2728 25.578L25.8788 23.972L24.2728 22.366C23.687 21.7802 23.687 20.8305 24.2728 20.2447Z" fill="white"/>
<path fill-rule="evenodd" clip-rule="evenodd" d="M7.2656 6.51069C9.04372 6.50153 10.7157 7.35213 11.7552 8.79312L13.0741 10.6229C13.5586 11.2949 13.4065 12.2324 12.7345 12.7168C12.0624 13.2012 11.1249 13.0492 10.6405 12.3771L9.32216 10.5482C9.32206 10.5481 9.32226 10.5484 9.32216 10.5482C8.84967 9.89353 8.08957 9.50655 7.28128 9.51065C7.28121 9.51065 7.28135 9.51065 7.28128 9.51065L4.00794 9.52799C3.17953 9.53237 2.50441 8.86437 2.50002 8.03595C2.49563 7.20753 3.16364 6.53241 3.99206 6.52803L7.2656 6.51069Z" fill="white"/>
<path fill-rule="evenodd" clip-rule="evenodd" d="M16.3744 19.3134C17.0298 18.8066 17.9718 18.9271 18.4786 19.5824L19.9799 21.5237C19.9799 21.5237 19.9799 21.5237 19.9799 21.5237C20.4543 22.1369 21.1882 22.4957 21.9654 22.4934L27.9948 22.472C28.8232 22.4691 29.4971 23.1383 29.5001 23.9667C29.503 24.7951 28.8338 25.4691 28.0054 25.472L21.976 25.4933C20.2681 25.4988 18.6524 24.7109 17.6069 23.359L16.1055 21.4176C15.5987 20.7623 15.7191 19.8202 16.3744 19.3134Z" fill="white"/>
<path fill-rule="evenodd" clip-rule="evenodd" d="M24.2728 4.30067C24.8586 3.71488 25.8084 3.71488 26.3942 4.30067L29.0608 6.96733C29.6466 7.55312 29.6466 8.50287 29.0608 9.08865L26.3942 11.7553C25.8084 12.3411 24.8586 12.3411 24.2728 11.7553C23.687 11.1695 23.687 10.2198 24.2728 9.634L25.8788 8.02799L24.2728 6.42199C23.687 5.8362 23.687 4.88645 24.2728 4.30067Z" fill="white"/>
</svg>
