<svg width="32" height="32" viewBox="0 0 32 32" fill="none" xmlns="http://www.w3.org/2000/svg">
<path fill-rule="evenodd" clip-rule="evenodd" d="M15.9999 1.66669C16.3805 1.66669 16.7281 1.88276 16.8966 2.22406L20.7841 10.0998L29.4778 11.3705C29.8544 11.4256 30.1671 11.6896 30.2844 12.0516C30.4018 12.4136 30.3036 12.8108 30.0309 13.0764L23.7411 19.2027L25.2255 27.8576C25.2898 28.2328 25.1356 28.612 24.8276 28.8357C24.5196 29.0595 24.1113 29.0889 23.7744 28.9118L15.9999 24.8232L8.22532 28.9118C7.8884 29.0889 7.48011 29.0595 7.17213 28.8357C6.86415 28.612 6.70991 28.2328 6.77426 27.8576L8.25868 19.2027L1.9688 13.0764C1.69618 12.8108 1.59791 12.4136 1.71529 12.0516C1.83266 11.6896 2.14534 11.4256 2.5219 11.3705L11.2156 10.0998L15.1032 2.22406C15.2716 1.88276 15.6192 1.66669 15.9999 1.66669ZM15.9999 4.92594L12.7766 11.456C12.631 11.7508 12.3498 11.9553 12.0245 12.0028L4.81494 13.0566L10.0309 18.137C10.2668 18.3667 10.3745 18.6979 10.3188 19.0224L9.08805 26.1984L15.5344 22.8083C15.8258 22.655 16.1739 22.655 16.4653 22.8083L22.9117 26.1984L21.6809 19.0224C21.6253 18.6979 21.7329 18.3667 21.9688 18.137L27.1848 13.0566L19.9752 12.0028C19.6499 11.9553 19.3687 11.7508 19.2232 11.456L15.9999 4.92594Z" fill="white"/>
<path d="M12.7766 11.456L15.9999 4.92594L19.2232 11.456C19.3687 11.7508 19.6499 11.9553 19.9752 12.0028L27.1848 13.0566L21.9688 18.137C21.7329 18.3667 21.6253 18.6979 21.6809 19.0224L22.9117 26.1984L16.4653 22.8083C16.1739 22.655 15.8258 22.655 15.5344 22.8083L9.08805 26.1984L10.3188 19.0224C10.3745 18.6979 10.2668 18.3667 10.0309 18.137L4.81494 13.0566L12.0245 12.0028C12.3498 11.9553 12.631 11.7508 12.7766 11.456Z" fill="white"/>
</svg>
