<svg width="32" height="32" viewBox="0 0 32 32" fill="none" xmlns="http://www.w3.org/2000/svg">
<path fill-rule="evenodd" clip-rule="evenodd" d="M19.0008 4.72231C20.9611 3.05969 23.9652 4.45714 23.9652 7.02323V24.0045C23.9652 26.5716 20.9618 27.9673 19.0008 26.3054C19.0006 26.3053 19.0005 26.3052 19.0004 26.3051L13.8007 21.8999H11.0156C9.35055 21.8999 8 20.5494 8 18.8843V12.1434C8 10.4783 9.35055 9.12779 11.0156 9.12779H13.8007L18.9995 4.72339C18.9998 4.72311 19.0001 4.72283 19.0005 4.72255C19.0006 4.72247 19.0007 4.72239 19.0008 4.72231ZM20.7721 7.40649L15.4181 11.9424C15.1297 12.1867 14.764 12.3208 14.3861 12.3208H11.193V18.7069H14.3861C14.764 18.7069 15.1297 18.841 15.4181 19.0853L20.7721 23.6212V7.40649Z" fill="#444D56"/>
<path fill-rule="evenodd" clip-rule="evenodd" d="M26.7847 11.8323C27.3257 11.136 28.3287 11.0102 29.0249 11.5512C30.2946 12.5378 30.9938 14.0547 30.9999 15.5998C31.0034 16.4815 30.2915 17.1991 29.4097 17.2026C28.528 17.2061 27.8104 16.4942 27.8069 15.6124C27.8045 15.0061 27.5274 14.4312 27.0657 14.0725C26.3695 13.5315 26.2436 12.5285 26.7847 11.8323Z" fill="#444D56"/>
<path fill-rule="evenodd" clip-rule="evenodd" d="M29.4097 14.0096C30.2915 14.0131 31.0034 14.7307 30.9999 15.6124C30.9938 17.1575 30.2946 18.6744 29.0249 19.661C28.3287 20.202 27.3257 20.0762 26.7847 19.3799C26.2436 18.6837 26.3695 17.6807 27.0657 17.1397C27.5274 16.781 27.8045 16.2061 27.8069 15.5998C27.8104 14.7181 28.528 14.0061 29.4097 14.0096Z" fill="#444D56"/>
</svg>
