<svg width="32" height="32" viewBox="0 0 32 32" fill="none" xmlns="http://www.w3.org/2000/svg">
<path fill-rule="evenodd" clip-rule="evenodd" d="M19.0248 5.18488C20.9894 3.51863 24 4.91913 24 7.49083V24.5091C24 27.0819 20.9901 28.4806 19.0248 26.8151C19.0247 26.815 19.0245 26.8149 19.0244 26.8148L13.8134 22.4H11.0222C9.3535 22.4 8 21.0465 8 19.3778V12.6222C8 10.9535 9.3535 9.59998 11.0222 9.59998H13.8134L19.0235 5.18596C19.0238 5.18569 19.0242 5.18541 19.0245 5.18513C19.0246 5.18504 19.0247 5.18496 19.0248 5.18488ZM20.8 7.87492L15.4343 12.4208C15.1453 12.6656 14.7788 12.8 14.4 12.8H11.2V19.2H14.4C14.7788 19.2 15.1453 19.3344 15.4343 19.5792L20.8 24.125V7.87492Z" fill="#444D56"/>
</svg>
