<svg width="26" height="26" viewBox="0 0 26 26" fill="none" xmlns="http://www.w3.org/2000/svg">
<g clip-path="url(#clip0_18_6)">
<path d="M26 7.89284V19.0357C26 20.8827 25.2662 22.6541 23.9602 23.9602C22.6541 25.2663 20.8827 26 19.0357 26H7.89281C6.04577 26 4.27438 25.2663 2.96832 23.9602C1.66226 22.6541 0.928528 20.8827 0.928528 19.0357V7.89284C0.928528 6.0458 1.66226 4.27441 2.96832 2.96835C4.27438 1.66229 6.04577 0.928558 7.89281 0.928558H19.0357C20.8827 0.928558 22.6541 1.66229 23.9602 2.96835C25.2662 4.27441 26 6.0458 26 7.89284Z" stroke="white" stroke-linecap="round" stroke-linejoin="round"/>
<path d="M11.7618 25.0714V12.8571C11.7618 9.8877 12.3809 7.42856 16.7142 7.42856M9.28564 14.2143H16.7142" stroke="white" stroke-linecap="round" stroke-linejoin="round"/>
</g>
<defs>
<clipPath id="clip0_18_6">
<rect width="26" height="26" fill="white"/>
</clipPath>
</defs>
</svg>
