<svg width="30" height="30" viewBox="0 0 30 30" fill="none" xmlns="http://www.w3.org/2000/svg">
<path d="M28.4092 7.97119C28.2493 7.39571 27.9362 6.871 27.5012 6.44959C27.0662 6.02817 26.5245 5.72485 25.9304 5.56996C24.3069 4.96235 8.57824 4.66466 4.01497 5.58696C3.42081 5.7419 2.8791 6.04533 2.44407 6.46686C2.00904 6.8884 1.69597 7.41325 1.53619 7.98886C0.803006 11.1037 0.747579 17.8378 1.55443 21.0227C1.71431 21.5981 2.02744 22.1228 2.46246 22.5443C2.89748 22.9657 3.43914 23.269 4.03321 23.4239C7.24869 24.1409 22.5353 24.2415 25.9487 23.4239C26.5427 23.269 27.0844 22.9657 27.5194 22.5443C27.9544 22.1228 28.2676 21.5981 28.4275 21.0227C29.209 17.6291 29.2645 11.3124 28.4092 7.97119V7.97119Z" stroke="white" stroke-linecap="round" stroke-linejoin="round"/>
<path d="M20 14.5L13 10V19L20 14.5Z" stroke="white" stroke-linecap="round" stroke-linejoin="round"/>
</svg>
