<svg width="17" height="17" viewBox="0 0 17 17" fill="none" xmlns="http://www.w3.org/2000/svg">
<path fill-rule="evenodd" clip-rule="evenodd" d="M9.33815 5.66903C9.33815 7.69537 7.69546 9.33807 5.66908 9.33807C3.64269 9.33807 2 7.69537 2 5.66903C2 3.6427 3.64269 2 5.66908 2C7.69546 2 9.33815 3.6427 9.33815 5.66903ZM8.90809 10.3223C7.98992 10.9626 6.87335 11.3381 5.66908 11.3381C2.53813 11.3381 0 8.79996 0 5.66903C0 2.53811 2.53813 0 5.66908 0C8.80002 0 11.3382 2.53811 11.3382 5.66903C11.3382 6.87333 10.9626 7.98993 10.3223 8.9081C10.324 8.90975 10.3256 8.91141 10.3273 8.91307L15.9964 14.5821C16.3869 14.9726 16.3869 15.6058 15.9964 15.9963C15.6058 16.3868 14.9727 16.3868 14.5821 15.9963L8.91307 10.3273C8.9114 10.3256 8.90974 10.3239 8.90809 10.3223Z" fill="white"/>
</svg>
