<svg width="16" height="16" viewBox="0 0 16 16" fill="none" xmlns="http://www.w3.org/2000/svg">
<path d="M14 3H14.5C14.5 2.72386 14.2761 2.5 14 2.5V3ZM14 12.5V13C14.2761 13 14.5 12.7761 14.5 12.5H14ZM5.5 12.5L5.14645 12.8536C5.24021 12.9473 5.36739 13 5.5 13V12.5ZM1 8L0.628353 7.66552C0.450455 7.86318 0.458406 8.16551 0.646447 8.35355L1 8ZM5.5 3V2.5C5.35826 2.5 5.22317 2.56016 5.12835 2.66552L5.5 3ZM13.5 3V12.5H14.5V3H13.5ZM14 12H5.5V13H14V12ZM5.85355 12.1464L1.35355 7.64645L0.646447 8.35355L5.14645 12.8536L5.85355 12.1464ZM1.37165 8.33448L5.87165 3.33448L5.12835 2.66552L0.628353 7.66552L1.37165 8.33448ZM5.5 3.5H14V2.5H5.5V3.5ZM6.16782 6.3737L10.6678 10.3737L11.3322 9.6263L6.83218 5.6263L6.16782 6.3737ZM10.6678 5.6263L6.16782 9.6263L6.83218 10.3737L11.3322 6.3737L10.6678 5.6263Z" fill="white"/>
</svg>
