<svg width="30" height="30" viewBox="0 0 30 30" fill="none" xmlns="http://www.w3.org/2000/svg">
<rect width="30" height="30" rx="15" fill="white"/>
<path d="M17.3161 20.0623L17.6039 19.0072C17.7507 18.4689 17.8241 18.1997 18.0119 18.0119C18.1997 17.8241 18.4688 17.7507 19.0072 17.6039L20.0623 17.3161C22.4702 16.6594 23.6742 16.3311 23.7127 15.6097C23.7513 14.8884 22.5891 14.4336 20.2649 13.5241L13.4479 10.8566C11.6228 10.1425 10.7103 9.78538 10.2478 10.2478C9.78536 10.7103 10.1424 11.6228 10.8566 13.4479L13.5241 20.2649C14.4336 22.5891 14.8884 23.7513 15.6097 23.7128C16.3311 23.6742 16.6594 22.4703 17.3161 20.0623Z" fill="#17120F"/>
</svg>
