<svg width="20" height="20" viewBox="0 0 20 20" fill="none" xmlns="http://www.w3.org/2000/svg">
<path fill-rule="evenodd" clip-rule="evenodd" d="M9.99999 1.66666C5.39762 1.66666 1.66666 5.39762 1.66666 9.99999C1.66666 14.6024 5.39762 18.3333 9.99999 18.3333H14.1667C15.2523 18.3333 15.7951 18.3333 16.2354 18.1945C17.1689 17.9001 17.9001 17.1689 18.1945 16.2354C18.3333 15.7951 18.3333 15.2523 18.3333 14.1667V9.99999C18.3333 5.39762 14.6024 1.66666 9.99999 1.66666ZM6.49999 9.16666C6.49999 8.61437 6.9477 8.16666 7.49999 8.16666H12.5C13.0523 8.16666 13.5 8.61437 13.5 9.16666C13.5 9.71894 13.0523 10.1667 12.5 10.1667H7.49999C6.9477 10.1667 6.49999 9.71894 6.49999 9.16666ZM8.99999 12.5C8.99999 11.9477 9.4477 11.5 9.99999 11.5H12.5C13.0523 11.5 13.5 11.9477 13.5 12.5C13.5 13.0523 13.0523 13.5 12.5 13.5H9.99999C9.4477 13.5 8.99999 13.0523 8.99999 12.5Z" fill="#17120F"/>
</svg>
