<svg width="20" height="20" viewBox="0 0 20 20" fill="none" xmlns="http://www.w3.org/2000/svg">
<path d="M1.66669 7.49935C1.66669 6.25319 1.66669 5.63012 1.93464 5.16602C2.11017 4.86198 2.36265 4.6095 2.66669 4.43396C3.13079 4.16602 3.75387 4.16602 5.00002 4.16602H15C16.2462 4.16602 16.8693 4.16602 17.3334 4.43396C17.6374 4.6095 17.8899 4.86198 18.0654 5.16602C18.3334 5.63012 18.3334 6.25319 18.3334 7.49935C18.3334 7.81089 18.3334 7.96666 18.2664 8.08268C18.2225 8.15869 18.1594 8.22181 18.0834 8.2657C17.9673 8.33268 17.8116 8.33268 17.5 8.33268H2.50002C2.18848 8.33268 2.03271 8.33268 1.91669 8.2657C1.84068 8.22181 1.77756 8.15869 1.73367 8.08268C1.66669 7.96666 1.66669 7.81089 1.66669 7.49935Z" fill="#A5A195"/>
<path fill-rule="evenodd" clip-rule="evenodd" d="M1.66669 14.334C1.66669 16.2196 1.66669 17.1624 2.25247 17.7482C2.83826 18.334 3.78107 18.334 5.66669 18.334H14.3334C16.219 18.334 17.1618 18.334 17.7476 17.7482C18.3334 17.1624 18.3334 16.2196 18.3334 14.334V11.0007C18.3334 10.5292 18.3334 10.2935 18.1869 10.1471C18.0405 10.0007 17.8048 10.0007 17.3334 10.0007H2.66669C2.19528 10.0007 1.95958 10.0007 1.81313 10.1471C1.66669 10.2935 1.66669 10.5292 1.66669 11.0007V14.334ZM5.83337 12.4993C5.83337 12.1878 5.83337 12.032 5.90036 11.916C5.94425 11.84 6.00736 11.7769 6.08337 11.733C6.1994 11.666 6.35517 11.666 6.66671 11.666H8.33337C8.64491 11.666 8.80068 11.666 8.91671 11.733C8.99272 11.7769 9.05584 11.84 9.09972 11.916C9.16671 12.032 9.16671 12.1878 9.16671 12.4993C9.16671 12.8109 9.16671 12.9667 9.09972 13.0827C9.05584 13.1587 8.99272 13.2218 8.91671 13.2657C8.80068 13.3327 8.64491 13.3327 8.33337 13.3327H6.66671C6.35517 13.3327 6.1994 13.3327 6.08337 13.2657C6.00736 13.2218 5.94425 13.1587 5.90036 13.0827C5.83337 12.9667 5.83337 12.8109 5.83337 12.4993ZM5.90036 15.25C5.83337 15.366 5.83337 15.5218 5.83337 15.8333C5.83337 16.1449 5.83337 16.3006 5.90036 16.4167C5.94425 16.4927 6.00736 16.5558 6.08337 16.5997C6.1994 16.6667 6.35517 16.6667 6.66671 16.6667H8.33338C8.64491 16.6667 8.80068 16.6667 8.91671 16.5997C8.99272 16.5558 9.05584 16.4927 9.09972 16.4167C9.16671 16.3006 9.16671 16.1449 9.16671 15.8333C9.16671 15.5218 9.16671 15.366 9.09972 15.25C9.05584 15.174 8.99272 15.1109 8.91671 15.067C8.80068 15 8.64491 15 8.33338 15H6.66671C6.35517 15 6.1994 15 6.08337 15.067C6.00736 15.1109 5.94425 15.174 5.90036 15.25ZM10.8334 12.4993C10.8334 12.1878 10.8334 12.032 10.9004 11.916C10.9442 11.84 11.0074 11.7769 11.0834 11.733C11.1994 11.666 11.3552 11.666 11.6667 11.666H13.3334C13.6449 11.666 13.8007 11.666 13.9167 11.733C13.9927 11.7769 14.0558 11.84 14.0997 11.916C14.1667 12.032 14.1667 12.1878 14.1667 12.4993C14.1667 12.8109 14.1667 12.9667 14.0997 13.0827C14.0558 13.1587 13.9927 13.2218 13.9167 13.2657C13.8007 13.3327 13.6449 13.3327 13.3334 13.3327H11.6667C11.3552 13.3327 11.1994 13.3327 11.0834 13.2657C11.0074 13.2218 10.9442 13.1587 10.9004 13.0827C10.8334 12.9667 10.8334 12.8109 10.8334 12.4993ZM10.9004 15.25C10.8334 15.366 10.8334 15.5218 10.8334 15.8333C10.8334 16.1449 10.8334 16.3006 10.9004 16.4167C10.9442 16.4927 11.0074 16.5558 11.0834 16.5997C11.1994 16.6667 11.3552 16.6667 11.6667 16.6667H13.3334C13.6449 16.6667 13.8007 16.6667 13.9167 16.5997C13.9927 16.5558 14.0558 16.4927 14.0997 16.4167C14.1667 16.3006 14.1667 16.1449 14.1667 15.8333C14.1667 15.5218 14.1667 15.366 14.0997 15.25C14.0558 15.174 13.9927 15.1109 13.9167 15.067C13.8007 15 13.6449 15 13.3334 15H11.6667C11.3552 15 11.1994 15 11.0834 15.067C11.0074 15.1109 10.9442 15.174 10.9004 15.25Z" fill="#A5A195"/>
<path d="M5.83331 2.5L5.83331 5" stroke="#A5A195" stroke-width="2" stroke-linecap="round"/>
<path d="M14.1667 2.5L14.1667 5" stroke="#A5A195" stroke-width="2" stroke-linecap="round"/>
</svg>
