<svg width="20" height="20" viewBox="0 0 20 20" fill="none" xmlns="http://www.w3.org/2000/svg">
<path d="M16.9695 12.3816L13.3511 10.6772L11.821 9.95645C12.4892 9.54073 13.032 8.89913 13.3871 8.12633C13.6833 7.48206 13.8366 6.78267 13.8365 6.07511C13.8365 5.65825 13.7695 5.26238 13.6762 4.88043C13.221 3.02954 11.7572 1.66602 10 1.66602C8.27606 1.66602 6.83447 2.98094 6.35109 4.77912C6.23949 5.19165 6.16277 5.6206 6.16277 6.07511C6.16277 6.86434 6.34947 7.60018 6.66672 8.24018C7.03341 8.98264 7.5771 9.59481 8.23885 9.9884L6.77347 10.6622L3.03768 12.3803C2.71327 12.5304 2.5 12.8918 2.5 13.2954V17.3488C2.5 17.8921 2.88333 18.3325 3.35654 18.3325H8.905V15.2289C8.90577 15.1969 8.91527 15.1657 8.9325 15.1386L8.93019 15.1372L9.83895 13.5829L9.84126 13.5843C9.87361 13.5295 9.93114 13.4908 10 13.4908C10.0689 13.4908 10.1264 13.5293 10.1587 13.5843L10.1597 13.5836L10.168 13.598C10.1691 13.6003 10.1708 13.6021 10.1717 13.6044L11.0684 15.1379L11.0673 15.1386C11.0845 15.1658 11.094 15.1971 11.0948 15.2292V18.3327H16.6432C17.1164 18.3327 17.5 17.8923 17.5 17.3491V13.2954C17.5007 12.8932 17.2909 12.5352 16.9695 12.3816ZM11.068 11.3423L11.0703 11.3437L10.1613 12.898L10.159 12.8966C10.1432 12.9246 10.1202 12.948 10.0923 12.9644C10.0644 12.9808 10.0327 12.9896 10.0002 12.9899C9.96779 12.9896 9.93601 12.9808 9.90813 12.9644C9.88026 12.948 9.85726 12.9246 9.84149 12.8966L9.84034 12.8973L9.83109 12.8816C9.8304 12.88 9.82901 12.8786 9.82832 12.877L8.93157 11.343L8.9325 11.3423C8.91526 11.3151 8.90576 11.2838 8.905 11.2518C8.905 11.1502 8.98842 11.0679 9.09124 11.0679H10.9088C11.0116 11.0679 11.095 11.1502 11.095 11.2518C11.0946 11.2838 11.0853 11.3152 11.068 11.3423Z" fill="#A5A195"/>
</svg>
