<svg width="20" height="20" viewBox="0 0 20 20" fill="none" xmlns="http://www.w3.org/2000/svg">
<path fill-rule="evenodd" clip-rule="evenodd" d="M2.15484 2.98816C1.66669 3.47631 1.66669 4.26198 1.66669 5.83333V7.58333H10.0049C10.2203 7.58333 10.3406 7.58284 10.4309 7.57598C10.4711 7.57292 10.4931 7.56932 10.5043 7.56698C10.5097 7.56587 10.5125 7.56505 10.5135 7.56474L10.5148 7.5643L10.516 7.5637C10.517 7.56319 10.5196 7.56176 10.5241 7.55878C10.5337 7.55248 10.5518 7.53949 10.5824 7.51322C10.6511 7.45425 10.7365 7.3695 10.8888 7.21722L12.2727 5.83333H11.8634C11.3622 5.83333 11.1117 5.83333 10.9103 5.70888C10.7089 5.58442 10.5968 5.36029 10.3727 4.91203L10.3727 4.91202L10.088 4.34262C9.63973 3.44609 9.4156 2.99783 9.01285 2.74892C8.6101 2.5 8.10892 2.5 7.10657 2.5H5.00002C3.42867 2.5 2.643 2.5 2.15484 2.98816ZM14.3909 5.83646L11.9495 8.27788L11.893 8.33459C11.6634 8.56554 11.4155 8.8148 11.0888 8.95012C10.7621 9.08544 10.4106 9.08443 10.085 9.08349L10.0049 9.08333H1.66669V12.5C1.66669 14.857 1.66669 16.0355 2.39892 16.7678C3.13115 17.5 4.30966 17.5 6.66669 17.5H13.3334C15.6904 17.5 16.8689 17.5 17.6011 16.7678C18.3334 16.0355 18.3334 14.857 18.3334 12.5V10.8333C18.3334 8.47631 18.3334 7.2978 17.6011 6.56557C16.9877 5.95216 16.0611 5.85262 14.3909 5.83646Z" fill="#A5A195"/>
</svg>
