<svg width="20" height="20" viewBox="0 0 20 20" fill="none" xmlns="http://www.w3.org/2000/svg">
<path fill-rule="evenodd" clip-rule="evenodd" d="M12.4543 2.13533L11.0981 1.92221C7.87753 1.41612 6.26724 1.16308 5.21696 2.0612C4.16669 2.95932 4.16669 4.58937 4.16669 7.84948V9H8.75273L6.71915 6.45803L8.28089 5.20864L11.6142 9.37531L12.114 10L11.6142 10.6247L8.28089 14.7914L6.71915 13.542L8.75273 11H4.16669V12.1498C4.16669 15.4099 4.16669 17.04 5.21696 17.9381C6.26724 18.8362 7.87753 18.5832 11.0981 18.0771L12.4543 17.864C14.067 17.6106 14.8734 17.4838 15.3534 16.9226C15.8334 16.3613 15.8334 15.545 15.8334 13.9125V6.08684C15.8334 4.45432 15.8334 3.63805 15.3534 3.07676C14.8734 2.51547 14.067 2.38876 12.4543 2.13533Z" fill="white"/>
</svg>
