<svg width="20" height="20" viewBox="0 0 20 20" fill="none" xmlns="http://www.w3.org/2000/svg">
<path fill-rule="evenodd" clip-rule="evenodd" d="M10.9931 2.60646C10.6725 2.53668 10.3402 2.5 10 2.5C7.62791 2.5 5.63516 4.2836 5.37321 6.64118L5.16337 8.5297C5.05573 9.4985 4.74039 10.4327 4.23888 11.2685L3.75719 12.0714C3.45447 12.5759 3.30311 12.8281 3.27537 13.0315C3.21456 13.4772 3.45885 13.9087 3.87233 14.0858C4.06097 14.1667 4.35516 14.1667 4.94353 14.1667H15.0565C15.6449 14.1667 15.939 14.1667 16.1277 14.0858C16.5412 13.9087 16.7854 13.4772 16.7246 13.0315C16.6969 12.8281 16.5455 12.5759 16.2428 12.0714L15.7611 11.2685C15.4593 10.7654 15.2249 10.2267 15.0626 9.66626C15.0418 9.66653 15.0209 9.66667 15 9.66667C12.4227 9.66667 10.3333 7.57733 10.3333 5C10.3333 4.12503 10.5741 3.3063 10.9931 2.60646ZM13.5617 4.15736C13.4166 4.40459 13.3333 4.69258 13.3333 5C13.3333 5.79149 13.8851 6.45412 14.6249 6.62428C14.517 5.68446 14.134 4.83651 13.5617 4.15736Z" fill="#17120F"/>
<path d="M7.5 14.1667C7.5 14.495 7.56466 14.8201 7.6903 15.1234C7.81594 15.4267 8.00009 15.7023 8.23223 15.9344C8.46438 16.1666 8.73998 16.3507 9.04329 16.4764C9.34661 16.602 9.6717 16.6667 10 16.6667C10.3283 16.6667 10.6534 16.602 10.9567 16.4764C11.26 16.3507 11.5356 16.1666 11.7678 15.9344C11.9999 15.7023 12.1841 15.4267 12.3097 15.1234C12.4353 14.8201 12.5 14.495 12.5 14.1667L10 14.1667H7.5Z" fill="#17120F"/>
<path d="M15 7.16668C16.1966 7.16668 17.1667 6.19663 17.1667 5.00001C17.1667 3.80339 16.1966 2.83334 15 2.83334C13.8034 2.83334 12.8333 3.80339 12.8333 5.00001C12.8333 6.19663 13.8034 7.16668 15 7.16668Z" fill="#FFBC11" stroke="#FFBC11"/>
</svg>
