<svg width="20" height="20" viewBox="0 0 20 20" fill="none" xmlns="http://www.w3.org/2000/svg">
<g clip-path="url(#clip0_2_74)">
<path d="M7.23076 0.769226H2.61538C1.6 0.769226 0.769226 1.6 0.769226 2.61538V7.23076C0.769226 8.24615 1.6 9.07692 2.61538 9.07692H7.23076C8.24615 9.07692 9.07692 8.24615 9.07692 7.23076V2.61538C9.07692 1.6 8.24615 0.769226 7.23076 0.769226ZM7.23076 10.9231H2.61538C1.6 10.9231 0.769226 11.7538 0.769226 12.7692V17.3846C0.769226 18.4 1.6 19.2308 2.61538 19.2308H7.23076C8.24615 19.2308 9.07692 18.4 9.07692 17.3846V12.7692C9.07692 11.7538 8.24615 10.9231 7.23076 10.9231ZM17.3846 10.9231H12.7692C11.7538 10.9231 10.9231 11.7538 10.9231 12.7692V17.3846C10.9231 18.4 11.7538 19.2308 12.7692 19.2308H17.3846C18.4 19.2308 19.2308 18.4 19.2308 17.3846V12.7692C19.2308 11.7538 18.4 10.9231 17.3846 10.9231Z" fill="white"/>
<path d="M15.0769 9.07692C17.371 9.07692 19.2308 7.21718 19.2308 4.92307C19.2308 2.62897 17.371 0.769226 15.0769 0.769226C12.7828 0.769226 10.9231 2.62897 10.9231 4.92307C10.9231 7.21718 12.7828 9.07692 15.0769 9.07692Z" fill="#FFBC11"/>
</g>
<defs>
<clipPath id="clip0_2_74">
<rect width="20" height="20" fill="white"/>
</clipPath>
</defs>
</svg>
