<svg width="20" height="20" viewBox="0 0 20 20" fill="none" xmlns="http://www.w3.org/2000/svg">
<path fill-rule="evenodd" clip-rule="evenodd" d="M5.84009 4.58005C6.15072 4.34169 6.48052 4.13105 6.82561 3.95002L8.16284 8.94063L3.17223 10.2779C3.15645 9.88849 3.17398 9.49756 3.22509 9.10937C3.34222 8.21968 3.63344 7.36177 4.08212 6.58463C4.5308 5.80749 5.12816 5.12633 5.84009 4.58005ZM9.54654 2.51348L9.55084 2.52961L11.19 8.64714L11.2017 8.69052C11.2517 8.87623 11.3222 9.13818 11.3532 9.37834C11.3922 9.68105 11.4013 10.1598 11.1196 10.6477C10.8379 11.1357 10.4187 11.3671 10.1371 11.4847C9.9136 11.578 9.65149 11.6479 9.46566 11.6974L9.42226 11.709L3.30473 13.3482L3.28916 13.3524C4.52003 15.8116 7.06287 17.5 10.0001 17.5C14.1422 17.5 17.5001 14.1421 17.5001 9.99999C17.5001 5.85786 14.1422 2.49999 10.0001 2.49999C9.84778 2.49999 9.69657 2.50453 9.54654 2.51348Z" fill="#A5A195"/>
<path d="M8.14511 3.07818C7.89384 2.14042 7.7682 1.67154 7.32916 1.47836C6.89012 1.28518 6.51579 1.48005 5.76715 1.86979C5.29498 2.1156 4.844 2.40264 4.41967 2.72825C3.46464 3.46106 2.66331 4.37481 2.06141 5.41732C1.45952 6.45983 1.06886 7.61068 0.911735 8.80416C0.841922 9.33444 0.81882 9.86853 0.842031 10.4003C0.878833 11.2436 0.897234 11.6652 1.28405 11.9488C1.67087 12.2324 2.13975 12.1068 3.07751 11.8555L8.06813 10.5183C8.97881 10.2743 9.43415 10.1523 9.64126 9.79354C9.84837 9.43482 9.72636 8.97948 9.48234 8.0688L8.14511 3.07818Z" fill="#A5A195"/>
</svg>
