<svg width="20" height="20" viewBox="0 0 20 20" fill="none" xmlns="http://www.w3.org/2000/svg">
<path fill-rule="evenodd" clip-rule="evenodd" d="M11.7197 2.3799C11.7472 2.47175 11.7582 2.58156 11.7801 2.80119C11.8216 3.21614 11.8424 3.42362 11.8947 3.55462C12.1032 4.0768 12.7011 4.32447 13.2178 4.10268C13.3474 4.04704 13.5088 3.91501 13.8316 3.65094L13.8316 3.65093L13.8316 3.65092C14.0024 3.51117 14.0878 3.44129 14.1722 3.39578C14.4998 3.21913 14.8984 3.23901 15.2067 3.44738C15.2862 3.50106 15.3642 3.57909 15.5203 3.73516L16.2648 4.47971C16.4209 4.63578 16.4989 4.71382 16.5526 4.79326C16.761 5.10163 16.7808 5.5002 16.6042 5.82778C16.5587 5.91217 16.4888 5.99758 16.349 6.16841L16.349 6.16842C16.085 6.49118 15.9529 6.65256 15.8973 6.78219C15.6755 7.29887 15.9232 7.89677 16.4453 8.1053C16.5763 8.15762 16.7838 8.17837 17.1988 8.21987C17.4184 8.24183 17.5283 8.25281 17.6201 8.28031C17.9766 8.38703 18.2444 8.68291 18.3151 9.04829C18.3334 9.14243 18.3334 9.25279 18.3334 9.47353V10.5266C18.3334 10.7472 18.3334 10.8575 18.3152 10.9516C18.2445 11.317 17.9766 11.613 17.62 11.7197C17.5282 11.7472 17.4184 11.7581 17.1989 11.7801C16.7841 11.8216 16.5767 11.8423 16.4458 11.8946C15.9235 12.1031 15.6757 12.7011 15.8977 13.2179C15.9533 13.3475 16.0852 13.5087 16.3492 13.8313L16.3492 13.8313L16.3492 13.8313C16.4889 14.002 16.5587 14.0874 16.6042 14.1717C16.7809 14.4994 16.761 14.898 16.5526 15.2064C16.4989 15.2858 16.4209 15.3638 16.265 15.5198L15.5203 16.2645C15.3642 16.4205 15.2862 16.4986 15.2068 16.5522C14.8984 16.7606 14.4998 16.7805 14.1722 16.6038C14.0879 16.5583 14.0024 16.4884 13.8316 16.3487L13.8316 16.3487L13.8316 16.3487C13.5089 16.0846 13.3475 15.9526 13.2179 15.8969C12.7012 15.6751 12.1033 15.9228 11.8947 16.445C11.8424 16.576 11.8217 16.7835 11.7802 17.1986L11.7802 17.1986C11.7582 17.4184 11.7472 17.5283 11.7197 17.6202C11.6129 17.9766 11.3171 18.2444 10.9518 18.3151C10.8576 18.3333 10.7472 18.3333 10.5264 18.3333H9.47355C9.25282 18.3333 9.14246 18.3333 9.04833 18.3151C8.68295 18.2444 8.38706 17.9766 8.28034 17.6201C8.25284 17.5282 8.24186 17.4184 8.2199 17.1988L8.2199 17.1988C8.1784 16.7838 8.15765 16.5763 8.10533 16.4453C7.8968 15.9231 7.29891 15.6755 6.78223 15.8972C6.6526 15.9529 6.49121 16.0849 6.16842 16.349L6.16842 16.349C5.99757 16.4888 5.91215 16.5587 5.82776 16.6042C5.50019 16.7809 5.10163 16.761 4.79327 16.5526C4.71382 16.4989 4.63578 16.4209 4.4797 16.2648L4.47969 16.2648L3.73516 15.5203C3.57908 15.3642 3.50104 15.2862 3.44736 15.2067C3.239 14.8984 3.21913 14.4998 3.39577 14.1722C3.44128 14.0878 3.51116 14.0024 3.65093 13.8316L3.65094 13.8316L3.65094 13.8316C3.91503 13.5088 4.04707 13.3474 4.10271 13.2178C4.32449 12.7011 4.07683 12.1032 3.55465 11.8947C3.42365 11.8424 3.21617 11.8216 2.80121 11.7801L2.8012 11.7801C2.58159 11.7581 2.47178 11.7472 2.37993 11.7197C2.0234 11.613 1.75562 11.3171 1.6849 10.9517C1.66669 10.8575 1.66669 10.7472 1.66669 10.5265V9.47361C1.66669 9.2528 1.66669 9.14239 1.68492 9.04822C1.75565 8.6829 2.02338 8.38706 2.37985 8.28033C2.47174 8.25282 2.5816 8.24183 2.80132 8.21986L2.80132 8.21986C3.21646 8.17835 3.42403 8.15759 3.55508 8.10524C4.07714 7.89668 4.32475 7.2989 4.10307 6.78227C4.04742 6.65258 3.91531 6.49111 3.65109 6.16818L3.65108 6.16817L3.65108 6.16816C3.51121 5.99721 3.44128 5.91174 3.39575 5.82729C3.21919 5.49978 3.23906 5.10131 3.44734 4.79299C3.50104 4.71349 3.57913 4.6354 3.73529 4.47923L3.7353 4.47923L4.47973 3.7348C4.63582 3.57871 4.71386 3.50067 4.79331 3.44699C5.10167 3.23864 5.50023 3.21876 5.8278 3.39539C5.91219 3.4409 5.99763 3.51081 6.16851 3.65062L6.16852 3.65062L6.16852 3.65063C6.49122 3.91466 6.65258 4.04667 6.78214 4.1023C7.29889 4.32419 7.89692 4.07648 8.10542 3.55418C8.1577 3.42323 8.17843 3.21585 8.21991 2.80108C8.24186 2.58156 8.25284 2.4718 8.28031 2.37999C8.38702 2.02338 8.68297 1.75555 9.04842 1.68486C9.14251 1.66666 9.25282 1.66666 9.47343 1.66666H10.5265C10.7472 1.66666 10.8576 1.66666 10.9517 1.68487C11.3171 1.75559 11.613 2.02336 11.7197 2.3799ZM10 13.3333C11.841 13.3333 13.3334 11.8409 13.3334 9.99999C13.3334 8.15904 11.841 6.66666 10 6.66666C8.15907 6.66666 6.66669 8.15904 6.66669 9.99999C6.66669 11.8409 8.15907 13.3333 10 13.3333Z" fill="white"/>
</svg>
