<svg width="20" height="20" viewBox="0 0 20 20" fill="none" xmlns="http://www.w3.org/2000/svg">
<g clip-path="url(#clip0_2_89)">
<path d="M16.4656 5.26002H12.2024V4.68242C12.2024 4.36416 12.076 4.05894 11.8509 3.83389C11.6259 3.60885 11.3207 3.48242 11.0024 3.48242H8.9976C8.67935 3.48242 8.37412 3.60885 8.14908 3.83389C7.92403 4.05894 7.79761 4.36416 7.79761 4.68242V5.26002H3.5344C3.13128 5.26002 2.74466 5.42016 2.4596 5.70522C2.17455 5.99027 2.0144 6.37689 2.0144 6.78002V10.8472C2.0144 11.0468 2.05372 11.2445 2.13011 11.4289C2.20649 11.6133 2.31846 11.7809 2.4596 11.922C2.60075 12.0632 2.76831 12.1751 2.95273 12.2515C3.13714 12.3279 3.3348 12.3672 3.5344 12.3672H8.58321V12.228C8.58321 12.1219 8.62535 12.0202 8.70036 11.9452C8.77538 11.8702 8.87712 11.828 8.98321 11.828H11.0168C11.1229 11.828 11.2246 11.8702 11.2996 11.9452C11.3747 12.0202 11.4168 12.1219 11.4168 12.228V12.3672H16.4656C16.6652 12.3672 16.8629 12.3279 17.0473 12.2515C17.2317 12.1751 17.3993 12.0632 17.5404 11.922C17.6816 11.7809 17.7935 11.6133 17.8699 11.4289C17.9463 11.2445 17.9856 11.0468 17.9856 10.8472V6.77922C17.9854 6.37623 17.8252 5.98982 17.5401 5.70494C17.2551 5.42005 16.8686 5.26002 16.4656 5.26002ZM8.5976 5.26002V4.68242C8.5976 4.57634 8.63975 4.47459 8.71476 4.39958C8.78978 4.32456 8.89152 4.28242 8.9976 4.28242H11.0024C11.1085 4.28242 11.2102 4.32456 11.2852 4.39958C11.3603 4.47459 11.4024 4.57634 11.4024 4.68242V5.26002H8.5976ZM10.6168 12.6264V13.2112H9.38321V12.6264H10.6168ZM16.4656 13.1656C16.8425 13.163 17.2129 13.0674 17.544 12.8872V15.2424C17.544 15.4105 17.5109 15.577 17.4466 15.7323C17.3822 15.8876 17.288 16.0287 17.1691 16.1475C17.0502 16.2664 16.9091 16.3607 16.7538 16.425C16.5985 16.4893 16.4321 16.5224 16.264 16.5224H3.7336C3.39413 16.5224 3.06855 16.3876 2.82851 16.1475C2.58846 15.9075 2.4536 15.5819 2.4536 15.2424V12.8872C2.78468 13.0674 3.1551 13.163 3.532 13.1656H8.5808V13.6112C8.5808 13.7173 8.62295 13.819 8.69796 13.8941C8.77298 13.9691 8.87472 14.0112 8.9808 14.0112H11.0144C11.1205 14.0112 11.2222 13.9691 11.2972 13.8941C11.3723 13.819 11.4144 13.7173 11.4144 13.6112V13.1656H16.4656Z" fill="#A5A195"/>
</g>
<defs>
<clipPath id="clip0_2_89">
<rect width="20" height="20" fill="white"/>
</clipPath>
</defs>
</svg>
